%TF.GenerationSoftware,KiCad,Pcbnew,9.0.3*%
%TF.CreationDate,2025-08-14T12:27:53+02:00*%
%TF.ProjectId,xt_pcb,78745f70-6362-42e6-9b69-6361645f7063,rev?*%
%TF.SameCoordinates,Original*%
%TF.FileFunction,Soldermask,Bot*%
%TF.FilePolarity,Negative*%
%FSLAX46Y46*%
G04 Gerber Fmt 4.6, Leading zero omitted, Abs format (unit mm)*
G04 Created by KiCad (PCBNEW 9.0.3) date 2025-08-14 12:27:53*
%MOMM*%
%LPD*%
G01*
G04 APERTURE LIST*
G04 Aperture macros list*
%AMRoundRect*
0 Rectangle with rounded corners*
0 $1 Rounding radius*
0 $2 $3 $4 $5 $6 $7 $8 $9 X,Y pos of 4 corners*
0 Add a 4 corners polygon primitive as box body*
4,1,4,$2,$3,$4,$5,$6,$7,$8,$9,$2,$3,0*
0 Add four circle primitives for the rounded corners*
1,1,$1+$1,$2,$3*
1,1,$1+$1,$4,$5*
1,1,$1+$1,$6,$7*
1,1,$1+$1,$8,$9*
0 Add four rect primitives between the rounded corners*
20,1,$1+$1,$2,$3,$4,$5,0*
20,1,$1+$1,$4,$5,$6,$7,0*
20,1,$1+$1,$6,$7,$8,$9,0*
20,1,$1+$1,$8,$9,$2,$3,0*%
G04 Aperture macros list end*
%ADD10RoundRect,0.250000X-1.025000X-1.000000X1.025000X-1.000000X1.025000X1.000000X-1.025000X1.000000X0*%
%ADD11C,1.750000*%
%ADD12C,4.000000*%
%ADD13C,3.600000*%
%ADD14C,3.048000*%
%ADD15C,3.987800*%
%ADD16RoundRect,0.250000X1.025000X1.000000X-1.025000X1.000000X-1.025000X-1.000000X1.025000X-1.000000X0*%
%ADD17RoundRect,0.225000X0.375000X-0.225000X0.375000X0.225000X-0.375000X0.225000X-0.375000X-0.225000X0*%
%ADD18RoundRect,0.140000X-0.140000X-0.170000X0.140000X-0.170000X0.140000X0.170000X-0.140000X0.170000X0*%
%ADD19RoundRect,0.140000X0.140000X0.170000X-0.140000X0.170000X-0.140000X-0.170000X0.140000X-0.170000X0*%
%ADD20RoundRect,0.140000X-0.170000X0.140000X-0.170000X-0.140000X0.170000X-0.140000X0.170000X0.140000X0*%
%ADD21RoundRect,0.135000X0.135000X0.185000X-0.135000X0.185000X-0.135000X-0.185000X0.135000X-0.185000X0*%
%ADD22R,1.200000X1.400000*%
%ADD23RoundRect,0.050000X0.387500X0.050000X-0.387500X0.050000X-0.387500X-0.050000X0.387500X-0.050000X0*%
%ADD24RoundRect,0.050000X0.050000X0.387500X-0.050000X0.387500X-0.050000X-0.387500X0.050000X-0.387500X0*%
%ADD25R,3.200000X3.200000*%
%ADD26RoundRect,0.140000X0.170000X-0.140000X0.170000X0.140000X-0.170000X0.140000X-0.170000X-0.140000X0*%
%ADD27RoundRect,0.225000X0.225000X0.250000X-0.225000X0.250000X-0.225000X-0.250000X0.225000X-0.250000X0*%
%ADD28RoundRect,0.150000X0.650000X0.150000X-0.650000X0.150000X-0.650000X-0.150000X0.650000X-0.150000X0*%
%ADD29RoundRect,0.162500X0.617500X0.162500X-0.617500X0.162500X-0.617500X-0.162500X0.617500X-0.162500X0*%
%ADD30RoundRect,0.375000X0.125000X0.000010X-0.125000X0.000010X-0.125000X-0.000010X0.125000X-0.000010X0*%
%ADD31R,0.850000X0.600000*%
%ADD32R,0.800000X0.700000*%
%ADD33RoundRect,0.135000X-0.135000X-0.185000X0.135000X-0.185000X0.135000X0.185000X-0.135000X0.185000X0*%
%ADD34R,1.700000X1.000000*%
%ADD35RoundRect,0.150000X0.512500X0.150000X-0.512500X0.150000X-0.512500X-0.150000X0.512500X-0.150000X0*%
%ADD36RoundRect,0.135000X0.185000X-0.135000X0.185000X0.135000X-0.185000X0.135000X-0.185000X-0.135000X0*%
%ADD37RoundRect,0.135000X-0.185000X0.135000X-0.185000X-0.135000X0.185000X-0.135000X0.185000X0.135000X0*%
%ADD38RoundRect,0.250000X-0.625000X0.375000X-0.625000X-0.375000X0.625000X-0.375000X0.625000X0.375000X0*%
%ADD39R,1.700000X1.700000*%
%ADD40O,1.700000X1.700000*%
%ADD41C,0.650000*%
%ADD42R,0.600000X1.450000*%
%ADD43R,0.300000X1.450000*%
%ADD44O,1.000000X1.600000*%
%ADD45O,1.000000X2.100000*%
%ADD46RoundRect,0.225000X-0.375000X0.225000X-0.375000X-0.225000X0.375000X-0.225000X0.375000X0.225000X0*%
G04 APERTURE END LIST*
D10*
%TO.C,SW79*%
X430325000Y-145065000D03*
D11*
X432330000Y-147605000D03*
D12*
X437410000Y-147605000D03*
D11*
X442490000Y-147605000D03*
D10*
X443252000Y-142525000D03*
D13*
X433600000Y-145065000D03*
X439950000Y-142525000D03*
%TD*%
D10*
%TO.C,SW43*%
X87425000Y-126015000D03*
D11*
X89430000Y-128555000D03*
D12*
X94510000Y-128555000D03*
D11*
X99590000Y-128555000D03*
D10*
X100352000Y-123475000D03*
D13*
X90700000Y-126015000D03*
X97050000Y-123475000D03*
%TD*%
D10*
%TO.C,SW46*%
X168402500Y-126015000D03*
D11*
X170407500Y-128555000D03*
D12*
X175487500Y-128555000D03*
D11*
X180567500Y-128555000D03*
D10*
X181329500Y-123475000D03*
D13*
X171677500Y-126015000D03*
X178027500Y-123475000D03*
%TD*%
D10*
%TO.C,SW36*%
X363665000Y-87915000D03*
D11*
X365670000Y-90455000D03*
D12*
X370750000Y-90455000D03*
D11*
X375830000Y-90455000D03*
D10*
X376592000Y-85375000D03*
D13*
X366940000Y-87915000D03*
X373290000Y-85375000D03*
%TD*%
D10*
%TO.C,SW72*%
X216027500Y-145065000D03*
D11*
X218032500Y-147605000D03*
D12*
X223112500Y-147605000D03*
D11*
X228192500Y-147605000D03*
D10*
X228954500Y-142525000D03*
D13*
X219302500Y-145065000D03*
X225652500Y-142525000D03*
%TD*%
D10*
%TO.C,SW25*%
X144590000Y-106965000D03*
D11*
X146595000Y-109505000D03*
D12*
X151675000Y-109505000D03*
D11*
X156755000Y-109505000D03*
D10*
X157517000Y-104425000D03*
D13*
X147865000Y-106965000D03*
X154215000Y-104425000D03*
%TD*%
D10*
%TO.C,SW38*%
X411275000Y-106965000D03*
D11*
X413280000Y-109505000D03*
D12*
X418360000Y-109505000D03*
D11*
X423440000Y-109505000D03*
D10*
X424202000Y-104425000D03*
D13*
X414550000Y-106965000D03*
X420900000Y-104425000D03*
%TD*%
D10*
%TO.C,SW62*%
X354140000Y-106965000D03*
D11*
X356145000Y-109505000D03*
D12*
X361225000Y-109505000D03*
D11*
X366305000Y-109505000D03*
D10*
X367067000Y-104425000D03*
D13*
X357415000Y-106965000D03*
X363765000Y-104425000D03*
%TD*%
D10*
%TO.C,SW28*%
X201740000Y-106965000D03*
D11*
X203745000Y-109505000D03*
D12*
X208825000Y-109505000D03*
D11*
X213905000Y-109505000D03*
D10*
X214667000Y-104425000D03*
D13*
X205015000Y-106965000D03*
X211365000Y-104425000D03*
%TD*%
D10*
%TO.C,SW9*%
X192215000Y-87915000D03*
D11*
X194220000Y-90455000D03*
D12*
X199300000Y-90455000D03*
D11*
X204380000Y-90455000D03*
D10*
X205142000Y-85375000D03*
D13*
X195490000Y-87915000D03*
X201840000Y-85375000D03*
%TD*%
D10*
%TO.C,SW23*%
X87425000Y-106965000D03*
D11*
X89430000Y-109505000D03*
D12*
X94510000Y-109505000D03*
D11*
X99590000Y-109505000D03*
D10*
X100352000Y-104425000D03*
D13*
X90700000Y-106965000D03*
X97050000Y-104425000D03*
%TD*%
D10*
%TO.C,SW60*%
X330327500Y-145065000D03*
D11*
X332332500Y-147605000D03*
D12*
X337412500Y-147605000D03*
D11*
X342492500Y-147605000D03*
D10*
X343254500Y-142525000D03*
D13*
X333602500Y-145065000D03*
X339952500Y-142525000D03*
%TD*%
D10*
%TO.C,SW5*%
X116015000Y-87915000D03*
D11*
X118020000Y-90455000D03*
D12*
X123100000Y-90455000D03*
D11*
X128180000Y-90455000D03*
D10*
X128942000Y-85375000D03*
D13*
X119290000Y-87915000D03*
X125640000Y-85375000D03*
%TD*%
D10*
%TO.C,SW3*%
X68375000Y-87915000D03*
D11*
X70380000Y-90455000D03*
D12*
X75460000Y-90455000D03*
D11*
X80540000Y-90455000D03*
D10*
X81302000Y-85375000D03*
D13*
X71650000Y-87915000D03*
X78000000Y-85375000D03*
%TD*%
D10*
%TO.C,SW56*%
X370808750Y-126015000D03*
D11*
X372813750Y-128555000D03*
D12*
X377893750Y-128555000D03*
D11*
X382973750Y-128555000D03*
D10*
X383735750Y-123475000D03*
D13*
X374083750Y-126015000D03*
X380433750Y-123475000D03*
%TD*%
D10*
%TO.C,SW20*%
X430325000Y-87915000D03*
D11*
X432330000Y-90455000D03*
D12*
X437410000Y-90455000D03*
D11*
X442490000Y-90455000D03*
D10*
X443252000Y-85375000D03*
D13*
X433600000Y-87915000D03*
X439950000Y-85375000D03*
%TD*%
D10*
%TO.C,SW42*%
X68375000Y-126015000D03*
D11*
X70380000Y-128555000D03*
D12*
X75460000Y-128555000D03*
D11*
X80540000Y-128555000D03*
D10*
X81302000Y-123475000D03*
D13*
X71650000Y-126015000D03*
X78000000Y-123475000D03*
%TD*%
D10*
%TO.C,SW83*%
X156328750Y-164115000D03*
D11*
X158333750Y-166655000D03*
D12*
X163413750Y-166655000D03*
D11*
X168493750Y-166655000D03*
D10*
X169255750Y-161575000D03*
D13*
X159603750Y-164115000D03*
X165953750Y-161575000D03*
%TD*%
D10*
%TO.C,SW47*%
X187452500Y-126015000D03*
D11*
X189457500Y-128555000D03*
D12*
X194537500Y-128555000D03*
D11*
X199617500Y-128555000D03*
D10*
X200379500Y-123475000D03*
D13*
X190727500Y-126015000D03*
X197077500Y-123475000D03*
%TD*%
D10*
%TO.C,SW90*%
X449375000Y-164115000D03*
D11*
X451380000Y-166655000D03*
D12*
X456460000Y-166655000D03*
D11*
X461540000Y-166655000D03*
D10*
X462302000Y-161575000D03*
D13*
X452650000Y-164115000D03*
X459000000Y-161575000D03*
%TD*%
D10*
%TO.C,SW82*%
X87425000Y-164115000D03*
D11*
X89430000Y-166655000D03*
D12*
X94510000Y-166655000D03*
D11*
X99590000Y-166655000D03*
D10*
X100352000Y-161575000D03*
D13*
X90700000Y-164115000D03*
X97050000Y-161575000D03*
%TD*%
D10*
%TO.C,SW13*%
X268415000Y-87915000D03*
D11*
X270420000Y-90455000D03*
D12*
X275500000Y-90455000D03*
D11*
X280580000Y-90455000D03*
D10*
X281342000Y-85375000D03*
D13*
X271690000Y-87915000D03*
X278040000Y-85375000D03*
%TD*%
D10*
%TO.C,SW24*%
X120777500Y-106965000D03*
D11*
X122782500Y-109505000D03*
D12*
X127862500Y-109505000D03*
D11*
X132942500Y-109505000D03*
D10*
X133704500Y-104425000D03*
D13*
X124052500Y-106965000D03*
X130402500Y-104425000D03*
%TD*%
D14*
%TO.C,SW92*%
X389831750Y-135540000D03*
D15*
X389831750Y-120330000D03*
D14*
X365955750Y-135540000D03*
D15*
X365955750Y-120330000D03*
%TD*%
D10*
%TO.C,SW81*%
X68375000Y-164115000D03*
D11*
X70380000Y-166655000D03*
D12*
X75460000Y-166655000D03*
D11*
X80540000Y-166655000D03*
D10*
X81302000Y-161575000D03*
D13*
X71650000Y-164115000D03*
X78000000Y-161575000D03*
%TD*%
D10*
%TO.C,SW22*%
X68375000Y-106965000D03*
D11*
X70380000Y-109505000D03*
D12*
X75460000Y-109505000D03*
D11*
X80540000Y-109505000D03*
D10*
X81302000Y-104425000D03*
D13*
X71650000Y-106965000D03*
X78000000Y-104425000D03*
%TD*%
D10*
%TO.C,SW14*%
X287465000Y-87915000D03*
D11*
X289470000Y-90455000D03*
D12*
X294550000Y-90455000D03*
D11*
X299630000Y-90455000D03*
D10*
X300392000Y-85375000D03*
D13*
X290740000Y-87915000D03*
X297090000Y-85375000D03*
%TD*%
D10*
%TO.C,SW49*%
X225552500Y-126015000D03*
D11*
X227557500Y-128555000D03*
D12*
X232637500Y-128555000D03*
D11*
X237717500Y-128555000D03*
D10*
X238479500Y-123475000D03*
D13*
X228827500Y-126015000D03*
X235177500Y-123475000D03*
%TD*%
D10*
%TO.C,SW54*%
X320802500Y-126015000D03*
D11*
X322807500Y-128555000D03*
D12*
X327887500Y-128555000D03*
D11*
X332967500Y-128555000D03*
D10*
X333729500Y-123475000D03*
D13*
X324077500Y-126015000D03*
X330427500Y-123475000D03*
%TD*%
D10*
%TO.C,SW10*%
X211265000Y-87915000D03*
D11*
X213270000Y-90455000D03*
D12*
X218350000Y-90455000D03*
D11*
X223430000Y-90455000D03*
D10*
X224192000Y-85375000D03*
D13*
X214540000Y-87915000D03*
X220890000Y-85375000D03*
%TD*%
D10*
%TO.C,SW15*%
X306515000Y-87915000D03*
D11*
X308520000Y-90455000D03*
D12*
X313600000Y-90455000D03*
D11*
X318680000Y-90455000D03*
D10*
X319442000Y-85375000D03*
D13*
X309790000Y-87915000D03*
X316140000Y-85375000D03*
%TD*%
D10*
%TO.C,SW29*%
X220790000Y-106965000D03*
D11*
X222795000Y-109505000D03*
D12*
X227875000Y-109505000D03*
D11*
X232955000Y-109505000D03*
D10*
X233717000Y-104425000D03*
D13*
X224065000Y-106965000D03*
X230415000Y-104425000D03*
%TD*%
D10*
%TO.C,SW67*%
X87425000Y-145065000D03*
D11*
X89430000Y-147605000D03*
D12*
X94510000Y-147605000D03*
D11*
X99590000Y-147605000D03*
D10*
X100352000Y-142525000D03*
D13*
X90700000Y-145065000D03*
X97050000Y-142525000D03*
%TD*%
D10*
%TO.C,SW50*%
X244602500Y-126015000D03*
D11*
X246607500Y-128555000D03*
D12*
X251687500Y-128555000D03*
D11*
X256767500Y-128555000D03*
D10*
X257529500Y-123475000D03*
D13*
X247877500Y-126015000D03*
X254227500Y-123475000D03*
%TD*%
D10*
%TO.C,SW58*%
X430325000Y-126015000D03*
D11*
X432330000Y-128555000D03*
D12*
X437410000Y-128555000D03*
D11*
X442490000Y-128555000D03*
D10*
X443252000Y-123475000D03*
D13*
X433600000Y-126015000D03*
X439950000Y-123475000D03*
%TD*%
D10*
%TO.C,SW55*%
X339852500Y-126015000D03*
D11*
X341857500Y-128555000D03*
D12*
X346937500Y-128555000D03*
D11*
X352017500Y-128555000D03*
D10*
X352779500Y-123475000D03*
D13*
X343127500Y-126015000D03*
X349477500Y-123475000D03*
%TD*%
D10*
%TO.C,SW16*%
X325565000Y-87915000D03*
D11*
X327570000Y-90455000D03*
D12*
X332650000Y-90455000D03*
D11*
X337730000Y-90455000D03*
D10*
X338492000Y-85375000D03*
D13*
X328840000Y-87915000D03*
X335190000Y-85375000D03*
%TD*%
D10*
%TO.C,SW96*%
X356521250Y-145065000D03*
D11*
X358526250Y-147605000D03*
D12*
X363606250Y-147605000D03*
D11*
X368686250Y-147605000D03*
D10*
X369448250Y-142525000D03*
D13*
X359796250Y-145065000D03*
X366146250Y-142525000D03*
%TD*%
D10*
%TO.C,SW37*%
X377952500Y-106965000D03*
D11*
X379957500Y-109505000D03*
D12*
X385037500Y-109505000D03*
D11*
X390117500Y-109505000D03*
D10*
X390879500Y-104425000D03*
D13*
X381227500Y-106965000D03*
X387577500Y-104425000D03*
%TD*%
D10*
%TO.C,SW71*%
X196977500Y-145065000D03*
D11*
X198982500Y-147605000D03*
D12*
X204062500Y-147605000D03*
D11*
X209142500Y-147605000D03*
D10*
X209904500Y-142525000D03*
D13*
X200252500Y-145065000D03*
X206602500Y-142525000D03*
%TD*%
D10*
%TO.C,SW52*%
X282702500Y-126015000D03*
D11*
X284707500Y-128555000D03*
D12*
X289787500Y-128555000D03*
D11*
X294867500Y-128555000D03*
D10*
X295629500Y-123475000D03*
D13*
X285977500Y-126015000D03*
X292327500Y-123475000D03*
%TD*%
D10*
%TO.C,SW73*%
X235077500Y-145065000D03*
D11*
X237082500Y-147605000D03*
D12*
X242162500Y-147605000D03*
D11*
X247242500Y-147605000D03*
D10*
X248004500Y-142525000D03*
D13*
X238352500Y-145065000D03*
X244702500Y-142525000D03*
%TD*%
D10*
%TO.C,SW34*%
X316040000Y-106965000D03*
D11*
X318045000Y-109505000D03*
D12*
X323125000Y-109505000D03*
D11*
X328205000Y-109505000D03*
D10*
X328967000Y-104425000D03*
D13*
X319315000Y-106965000D03*
X325665000Y-104425000D03*
%TD*%
D10*
%TO.C,SW59*%
X449375000Y-126015000D03*
D11*
X451380000Y-128555000D03*
D12*
X456460000Y-128555000D03*
D11*
X461540000Y-128555000D03*
D10*
X462302000Y-123475000D03*
D13*
X452650000Y-126015000D03*
X459000000Y-123475000D03*
%TD*%
D10*
%TO.C,SW75*%
X273177500Y-145065000D03*
D11*
X275182500Y-147605000D03*
D12*
X280262500Y-147605000D03*
D11*
X285342500Y-147605000D03*
D10*
X286104500Y-142525000D03*
D13*
X276452500Y-145065000D03*
X282802500Y-142525000D03*
%TD*%
D10*
%TO.C,SW44*%
X118445000Y-126030000D03*
D11*
X120450000Y-128570000D03*
D12*
X125530000Y-128570000D03*
D11*
X130610000Y-128570000D03*
D10*
X131372000Y-123490000D03*
D13*
X121720000Y-126030000D03*
X128070000Y-123490000D03*
%TD*%
D16*
%TO.C,SW41*%
X137328750Y-131095000D03*
D11*
X135323750Y-128555000D03*
D12*
X130243750Y-128555000D03*
D11*
X125163750Y-128555000D03*
D16*
X124401750Y-133635000D03*
D13*
X134053750Y-131095000D03*
X127703750Y-133635000D03*
%TD*%
D10*
%TO.C,SW6*%
X135065000Y-87915000D03*
D11*
X137070000Y-90455000D03*
D12*
X142150000Y-90455000D03*
D11*
X147230000Y-90455000D03*
D10*
X147992000Y-85375000D03*
D13*
X138340000Y-87915000D03*
X144690000Y-85375000D03*
%TD*%
D10*
%TO.C,SW21*%
X449375000Y-87915000D03*
D11*
X451380000Y-90455000D03*
D12*
X456460000Y-90455000D03*
D11*
X461540000Y-90455000D03*
D10*
X462302000Y-85375000D03*
D13*
X452650000Y-87915000D03*
X459000000Y-85375000D03*
%TD*%
D10*
%TO.C,SW77*%
X311277500Y-145065000D03*
D11*
X313282500Y-147605000D03*
D12*
X318362500Y-147605000D03*
D11*
X323442500Y-147605000D03*
D10*
X324204500Y-142525000D03*
D13*
X314552500Y-145065000D03*
X320902500Y-142525000D03*
%TD*%
D10*
%TO.C,SW4*%
X87425000Y-87915000D03*
D11*
X89430000Y-90455000D03*
D12*
X94510000Y-90455000D03*
D11*
X99590000Y-90455000D03*
D10*
X100352000Y-85375000D03*
D13*
X90700000Y-87915000D03*
X97050000Y-85375000D03*
%TD*%
D10*
%TO.C,SW1*%
X382715000Y-87915000D03*
D11*
X384720000Y-90455000D03*
D12*
X389800000Y-90455000D03*
D11*
X394880000Y-90455000D03*
D10*
X395642000Y-85375000D03*
D13*
X385990000Y-87915000D03*
X392340000Y-85375000D03*
%TD*%
D10*
%TO.C,SW12*%
X249365000Y-87915000D03*
D11*
X251370000Y-90455000D03*
D12*
X256450000Y-90455000D03*
D11*
X261530000Y-90455000D03*
D10*
X262292000Y-85375000D03*
D13*
X252640000Y-87915000D03*
X258990000Y-85375000D03*
%TD*%
D10*
%TO.C,SW66*%
X68375000Y-145065000D03*
D11*
X70380000Y-147605000D03*
D12*
X75460000Y-147605000D03*
D11*
X80540000Y-147605000D03*
D10*
X81302000Y-142525000D03*
D13*
X71650000Y-145065000D03*
X78000000Y-142525000D03*
%TD*%
D16*
%TO.C,SW18*%
X265916250Y-169195000D03*
D11*
X263911250Y-166655000D03*
D12*
X258831250Y-166655000D03*
D11*
X253751250Y-166655000D03*
D16*
X252989250Y-171735000D03*
D13*
X262641250Y-169195000D03*
X256291250Y-171735000D03*
%TD*%
D10*
%TO.C,SW68*%
X139827500Y-145065000D03*
D11*
X141832500Y-147605000D03*
D12*
X146912500Y-147605000D03*
D11*
X151992500Y-147605000D03*
D10*
X152754500Y-142525000D03*
D13*
X143102500Y-145065000D03*
X149452500Y-142525000D03*
%TD*%
D10*
%TO.C,SW40*%
X449375000Y-106965000D03*
D11*
X451380000Y-109505000D03*
D12*
X456460000Y-109505000D03*
D11*
X461540000Y-109505000D03*
D10*
X462302000Y-104425000D03*
D13*
X452650000Y-106965000D03*
X459000000Y-104425000D03*
%TD*%
D10*
%TO.C,SW45*%
X149352500Y-126015000D03*
D11*
X151357500Y-128555000D03*
D12*
X156437500Y-128555000D03*
D11*
X161517500Y-128555000D03*
D10*
X162279500Y-123475000D03*
D13*
X152627500Y-126015000D03*
X158977500Y-123475000D03*
%TD*%
D10*
%TO.C,SW7*%
X154115000Y-87915000D03*
D11*
X156120000Y-90455000D03*
D12*
X161200000Y-90455000D03*
D11*
X166280000Y-90455000D03*
D10*
X167042000Y-85375000D03*
D13*
X157390000Y-87915000D03*
X163740000Y-85375000D03*
%TD*%
D10*
%TO.C,SW48*%
X206502500Y-126015000D03*
D11*
X208507500Y-128555000D03*
D12*
X213587500Y-128555000D03*
D11*
X218667500Y-128555000D03*
D10*
X219429500Y-123475000D03*
D13*
X209777500Y-126015000D03*
X216127500Y-123475000D03*
%TD*%
D10*
%TO.C,SW31*%
X258890000Y-106965000D03*
D11*
X260895000Y-109505000D03*
D12*
X265975000Y-109505000D03*
D11*
X271055000Y-109505000D03*
D10*
X271817000Y-104425000D03*
D13*
X262165000Y-106965000D03*
X268515000Y-104425000D03*
%TD*%
D10*
%TO.C,SW26*%
X163640000Y-106965000D03*
D11*
X165645000Y-109505000D03*
D12*
X170725000Y-109505000D03*
D11*
X175805000Y-109505000D03*
D10*
X176567000Y-104425000D03*
D13*
X166915000Y-106965000D03*
X173265000Y-104425000D03*
%TD*%
D10*
%TO.C,SW35*%
X335090000Y-106965000D03*
D11*
X337095000Y-109505000D03*
D12*
X342175000Y-109505000D03*
D11*
X347255000Y-109505000D03*
D10*
X348017000Y-104425000D03*
D13*
X338365000Y-106965000D03*
X344715000Y-104425000D03*
%TD*%
D10*
%TO.C,SW84*%
X177760000Y-164115000D03*
D11*
X179765000Y-166655000D03*
D12*
X184845000Y-166655000D03*
D11*
X189925000Y-166655000D03*
D10*
X190687000Y-161575000D03*
D13*
X181035000Y-164115000D03*
X187385000Y-161575000D03*
%TD*%
D10*
%TO.C,SW78*%
X411275000Y-145065000D03*
D11*
X413280000Y-147605000D03*
D12*
X418360000Y-147605000D03*
D11*
X423440000Y-147605000D03*
D10*
X424202000Y-142525000D03*
D13*
X414550000Y-145065000D03*
X420900000Y-142525000D03*
%TD*%
D10*
%TO.C,SW32*%
X277940000Y-106965000D03*
D11*
X279945000Y-109505000D03*
D12*
X285025000Y-109505000D03*
D11*
X290105000Y-109505000D03*
D10*
X290867000Y-104425000D03*
D13*
X281215000Y-106965000D03*
X287565000Y-104425000D03*
%TD*%
D10*
%TO.C,SW89*%
X430325000Y-164115000D03*
D11*
X432330000Y-166655000D03*
D12*
X437410000Y-166655000D03*
D11*
X442490000Y-166655000D03*
D10*
X443252000Y-161575000D03*
D13*
X433600000Y-164115000D03*
X439950000Y-161575000D03*
%TD*%
D10*
%TO.C,SW69*%
X158877500Y-145065000D03*
D11*
X160882500Y-147605000D03*
D12*
X165962500Y-147605000D03*
D11*
X171042500Y-147605000D03*
D10*
X171804500Y-142525000D03*
D13*
X162152500Y-145065000D03*
X168502500Y-142525000D03*
%TD*%
D10*
%TO.C,SW17*%
X344615000Y-87915000D03*
D11*
X346620000Y-90455000D03*
D12*
X351700000Y-90455000D03*
D11*
X356780000Y-90455000D03*
D10*
X357542000Y-85375000D03*
D13*
X347890000Y-87915000D03*
X354240000Y-85375000D03*
%TD*%
D10*
%TO.C,SW39*%
X430325000Y-106965000D03*
D11*
X432330000Y-109505000D03*
D12*
X437410000Y-109505000D03*
D11*
X442490000Y-109505000D03*
D10*
X443252000Y-104425000D03*
D13*
X433600000Y-106965000D03*
X439950000Y-104425000D03*
%TD*%
D10*
%TO.C,SW74*%
X254127500Y-145065000D03*
D11*
X256132500Y-147605000D03*
D12*
X261212500Y-147605000D03*
D11*
X266292500Y-147605000D03*
D10*
X267054500Y-142525000D03*
D13*
X257402500Y-145065000D03*
X263752500Y-142525000D03*
%TD*%
D10*
%TO.C,SW30*%
X239840000Y-106965000D03*
D11*
X241845000Y-109505000D03*
D12*
X246925000Y-109505000D03*
D11*
X252005000Y-109505000D03*
D10*
X252767000Y-104425000D03*
D13*
X243115000Y-106965000D03*
X249465000Y-104425000D03*
%TD*%
D10*
%TO.C,SW64*%
X382715000Y-145065000D03*
D11*
X384720000Y-147605000D03*
D12*
X389800000Y-147605000D03*
D11*
X394880000Y-147605000D03*
D10*
X395642000Y-142525000D03*
D13*
X385990000Y-145065000D03*
X392340000Y-142525000D03*
%TD*%
D10*
%TO.C,SW19*%
X411275000Y-87915000D03*
D11*
X413280000Y-90455000D03*
D12*
X418360000Y-90455000D03*
D11*
X423440000Y-90455000D03*
D10*
X424202000Y-85375000D03*
D13*
X414550000Y-87915000D03*
X420900000Y-85375000D03*
%TD*%
D10*
%TO.C,SW57*%
X411275000Y-126015000D03*
D11*
X413280000Y-128555000D03*
D12*
X418360000Y-128555000D03*
D11*
X423440000Y-128555000D03*
D10*
X424202000Y-123475000D03*
D13*
X414550000Y-126015000D03*
X420900000Y-123475000D03*
%TD*%
D10*
%TO.C,SW8*%
X173165000Y-87915000D03*
D11*
X175170000Y-90455000D03*
D12*
X180250000Y-90455000D03*
D11*
X185330000Y-90455000D03*
D10*
X186092000Y-85375000D03*
D13*
X176440000Y-87915000D03*
X182790000Y-85375000D03*
%TD*%
D10*
%TO.C,SW51*%
X263652500Y-126015000D03*
D11*
X265657500Y-128555000D03*
D12*
X270737500Y-128555000D03*
D11*
X275817500Y-128555000D03*
D10*
X276579500Y-123475000D03*
D13*
X266927500Y-126015000D03*
X273277500Y-123475000D03*
%TD*%
D10*
%TO.C,SW33*%
X296990000Y-106965000D03*
D11*
X298995000Y-109505000D03*
D12*
X304075000Y-109505000D03*
D11*
X309155000Y-109505000D03*
D10*
X309917000Y-104425000D03*
D13*
X300265000Y-106965000D03*
X306615000Y-104425000D03*
%TD*%
D10*
%TO.C,SW76*%
X292227500Y-145065000D03*
D11*
X294232500Y-147605000D03*
D12*
X299312500Y-147605000D03*
D11*
X304392500Y-147605000D03*
D10*
X305154500Y-142525000D03*
D13*
X295502500Y-145065000D03*
X301852500Y-142525000D03*
%TD*%
D10*
%TO.C,SW11*%
X230315000Y-87915000D03*
D11*
X232320000Y-90455000D03*
D12*
X237400000Y-90455000D03*
D11*
X242480000Y-90455000D03*
D10*
X243242000Y-85375000D03*
D13*
X233590000Y-87915000D03*
X239940000Y-85375000D03*
%TD*%
D10*
%TO.C,SW80*%
X449375000Y-145065000D03*
D11*
X451380000Y-147605000D03*
D12*
X456460000Y-147605000D03*
D11*
X461540000Y-147605000D03*
D10*
X462302000Y-142525000D03*
D13*
X452650000Y-145065000D03*
X459000000Y-142525000D03*
%TD*%
D10*
%TO.C,SW27*%
X182690000Y-106965000D03*
D11*
X184695000Y-109505000D03*
D12*
X189775000Y-109505000D03*
D11*
X194855000Y-109505000D03*
D10*
X195617000Y-104425000D03*
D13*
X185965000Y-106965000D03*
X192315000Y-104425000D03*
%TD*%
D10*
%TO.C,SW88*%
X411275000Y-164115000D03*
D11*
X413280000Y-166655000D03*
D12*
X418360000Y-166655000D03*
D11*
X423440000Y-166655000D03*
D10*
X424202000Y-161575000D03*
D13*
X414550000Y-164115000D03*
X420900000Y-161575000D03*
%TD*%
D10*
%TO.C,SW87*%
X342066250Y-164115000D03*
D11*
X344071250Y-166655000D03*
D12*
X349151250Y-166655000D03*
D11*
X354231250Y-166655000D03*
D10*
X354993250Y-161575000D03*
D13*
X345341250Y-164115000D03*
X351691250Y-161575000D03*
%TD*%
D10*
%TO.C,SW61*%
X118445000Y-145080000D03*
D11*
X120450000Y-147620000D03*
D12*
X125530000Y-147620000D03*
D11*
X130610000Y-147620000D03*
D10*
X131372000Y-142540000D03*
D13*
X121720000Y-145080000D03*
X128070000Y-142540000D03*
%TD*%
D10*
%TO.C,SW86*%
X320635000Y-164115000D03*
D11*
X322640000Y-166655000D03*
D12*
X327720000Y-166655000D03*
D11*
X332800000Y-166655000D03*
D10*
X333562000Y-161575000D03*
D13*
X323910000Y-164115000D03*
X330260000Y-161575000D03*
%TD*%
D10*
%TO.C,SW53*%
X301752500Y-126015000D03*
D11*
X303757500Y-128555000D03*
D12*
X308837500Y-128555000D03*
D11*
X313917500Y-128555000D03*
D10*
X314679500Y-123475000D03*
D13*
X305027500Y-126015000D03*
X311377500Y-123475000D03*
%TD*%
D14*
%TO.C,SW91*%
X308831250Y-173640000D03*
D15*
X308831250Y-158430000D03*
D14*
X208831250Y-173640000D03*
D15*
X208831250Y-158430000D03*
%TD*%
D10*
%TO.C,SW70*%
X177927500Y-145065000D03*
D11*
X179932500Y-147605000D03*
D12*
X185012500Y-147605000D03*
D11*
X190092500Y-147605000D03*
D10*
X190854500Y-142525000D03*
D13*
X181202500Y-145065000D03*
X187552500Y-142525000D03*
%TD*%
D17*
%TO.C,D66*%
X219671500Y-153635000D03*
X219671500Y-150335000D03*
%TD*%
%TO.C,D49*%
X267671500Y-134212500D03*
X267671500Y-130912500D03*
%TD*%
D18*
%TO.C,C11*%
X236831500Y-160805000D03*
X237791500Y-160805000D03*
%TD*%
D19*
%TO.C,C15*%
X222251500Y-160065000D03*
X221291500Y-160065000D03*
%TD*%
D17*
%TO.C,D82*%
X346091500Y-172575000D03*
X346091500Y-169275000D03*
%TD*%
%TO.C,D79*%
X181881500Y-172565000D03*
X181881500Y-169265000D03*
%TD*%
D20*
%TO.C,C16*%
X231171500Y-169335000D03*
X231171500Y-170295000D03*
%TD*%
D17*
%TO.C,D32*%
X301141500Y-115322500D03*
X301141500Y-112022500D03*
%TD*%
%TO.C,D58*%
X72521500Y-153362500D03*
X72521500Y-150062500D03*
%TD*%
%TO.C,D64*%
X181821500Y-153462500D03*
X181821500Y-150162500D03*
%TD*%
%TO.C,D13*%
X310671500Y-96062500D03*
X310671500Y-92762500D03*
%TD*%
D18*
%TO.C,C14*%
X237071500Y-164695000D03*
X238031500Y-164695000D03*
%TD*%
D17*
%TO.C,D7*%
X196001500Y-96025000D03*
X196001500Y-92725000D03*
%TD*%
%TO.C,D36*%
X382321500Y-115562500D03*
X382321500Y-112262500D03*
%TD*%
D21*
%TO.C,R2*%
X257481500Y-152375000D03*
X256461500Y-152375000D03*
%TD*%
D17*
%TO.C,D19*%
X434101500Y-95925000D03*
X434101500Y-92625000D03*
%TD*%
D22*
%TO.C,Y1*%
X234226500Y-173740000D03*
X234226500Y-171540000D03*
X235926500Y-171540000D03*
X235926500Y-173740000D03*
%TD*%
D17*
%TO.C,D43*%
X153331500Y-134265000D03*
X153331500Y-130965000D03*
%TD*%
%TO.C,D59*%
X91241500Y-153512500D03*
X91241500Y-150212500D03*
%TD*%
D23*
%TO.C,U2*%
X234929000Y-161085000D03*
X234929000Y-161485000D03*
X234929000Y-161885000D03*
X234929000Y-162285000D03*
X234929000Y-162685000D03*
X234929000Y-163085000D03*
X234929000Y-163485000D03*
X234929000Y-163885000D03*
X234929000Y-164285000D03*
X234929000Y-164685000D03*
X234929000Y-165085000D03*
X234929000Y-165485000D03*
X234929000Y-165885000D03*
X234929000Y-166285000D03*
D24*
X234091500Y-167122500D03*
X233691500Y-167122500D03*
X233291500Y-167122500D03*
X232891500Y-167122500D03*
X232491500Y-167122500D03*
X232091500Y-167122500D03*
X231691500Y-167122500D03*
X231291500Y-167122500D03*
X230891500Y-167122500D03*
X230491500Y-167122500D03*
X230091500Y-167122500D03*
X229691500Y-167122500D03*
X229291500Y-167122500D03*
X228891500Y-167122500D03*
D23*
X228054000Y-166285000D03*
X228054000Y-165885000D03*
X228054000Y-165485000D03*
X228054000Y-165085000D03*
X228054000Y-164685000D03*
X228054000Y-164285000D03*
X228054000Y-163885000D03*
X228054000Y-163485000D03*
X228054000Y-163085000D03*
X228054000Y-162685000D03*
X228054000Y-162285000D03*
X228054000Y-161885000D03*
X228054000Y-161485000D03*
X228054000Y-161085000D03*
D24*
X228891500Y-160247500D03*
X229291500Y-160247500D03*
X229691500Y-160247500D03*
X230091500Y-160247500D03*
X230491500Y-160247500D03*
X230891500Y-160247500D03*
X231291500Y-160247500D03*
X231691500Y-160247500D03*
X232091500Y-160247500D03*
X232491500Y-160247500D03*
X232891500Y-160247500D03*
X233291500Y-160247500D03*
X233691500Y-160247500D03*
X234091500Y-160247500D03*
D25*
X231491500Y-163685000D03*
%TD*%
D17*
%TO.C,D83*%
X415231500Y-172285000D03*
X415231500Y-168985000D03*
%TD*%
%TO.C,D6*%
X177241500Y-95962500D03*
X177241500Y-92662500D03*
%TD*%
%TO.C,D41*%
X91731500Y-134515000D03*
X91731500Y-131215000D03*
%TD*%
%TO.C,D15*%
X348621500Y-95872500D03*
X348621500Y-92572500D03*
%TD*%
%TO.C,D84*%
X434441500Y-172195000D03*
X434441500Y-168895000D03*
%TD*%
%TO.C,D17*%
X248951500Y-173555000D03*
X248951500Y-170255000D03*
%TD*%
%TO.C,D12*%
X291401500Y-95742500D03*
X291401500Y-92442500D03*
%TD*%
%TO.C,D37*%
X415351500Y-115042500D03*
X415351500Y-111742500D03*
%TD*%
%TO.C,D44*%
X172451500Y-134315000D03*
X172451500Y-131015000D03*
%TD*%
D26*
%TO.C,C13*%
X230441500Y-156625000D03*
X230441500Y-155665000D03*
%TD*%
D17*
%TO.C,D39*%
X453471500Y-114782500D03*
X453471500Y-111482500D03*
%TD*%
D20*
%TO.C,C12*%
X225061500Y-165075000D03*
X225061500Y-166035000D03*
%TD*%
D19*
%TO.C,C10*%
X226561500Y-160115000D03*
X225601500Y-160115000D03*
%TD*%
D27*
%TO.C,C9*%
X215386500Y-159945000D03*
X213836500Y-159945000D03*
%TD*%
D17*
%TO.C,D22*%
X91441500Y-114692500D03*
X91441500Y-111392500D03*
%TD*%
D19*
%TO.C,C6*%
X222281500Y-158875000D03*
X221321500Y-158875000D03*
%TD*%
D17*
%TO.C,D86*%
X386811500Y-153555000D03*
X386811500Y-150255000D03*
%TD*%
%TO.C,D65*%
X200951500Y-153445000D03*
X200951500Y-150145000D03*
%TD*%
%TO.C,D2*%
X91381500Y-95335000D03*
X91381500Y-92035000D03*
%TD*%
%TO.C,D25*%
X167831500Y-115272500D03*
X167831500Y-111972500D03*
%TD*%
%TO.C,D4*%
X139051500Y-96092500D03*
X139051500Y-92792500D03*
%TD*%
D28*
%TO.C,U3*%
X247434000Y-151165000D03*
X247434000Y-152435000D03*
X247434000Y-153705000D03*
X247434000Y-154975000D03*
X240234000Y-154975000D03*
X240234000Y-153705000D03*
X240234000Y-152435000D03*
X240234000Y-151165000D03*
%TD*%
D17*
%TO.C,D28*%
X224801500Y-115122500D03*
X224801500Y-111822500D03*
%TD*%
D29*
%TO.C,U4*%
X110511500Y-96995000D03*
X110511500Y-97945000D03*
X110511500Y-98895000D03*
X107811500Y-98895000D03*
X107811500Y-97945000D03*
X107811500Y-96995000D03*
%TD*%
D17*
%TO.C,D74*%
X434301500Y-153315000D03*
X434301500Y-150015000D03*
%TD*%
D30*
%TO.C,J1*%
X106066500Y-103145000D03*
D31*
X106066500Y-104345000D03*
X106066500Y-105545000D03*
X106066500Y-106745000D03*
D32*
X109816500Y-102345000D03*
X109816500Y-107545000D03*
%TD*%
D33*
%TO.C,R6*%
X220771500Y-156765000D03*
X221791500Y-156765000D03*
%TD*%
D34*
%TO.C,RST1*%
X219321500Y-167155000D03*
X213021500Y-167155000D03*
X219321500Y-170955000D03*
X213021500Y-170955000D03*
%TD*%
D17*
%TO.C,D40*%
X72051500Y-134355000D03*
X72051500Y-131055000D03*
%TD*%
%TO.C,D53*%
X343861500Y-133845000D03*
X343861500Y-130545000D03*
%TD*%
D35*
%TO.C,U1*%
X201461500Y-137095000D03*
X201461500Y-138995000D03*
X199186500Y-138045000D03*
%TD*%
D17*
%TO.C,D45*%
X191471500Y-133895000D03*
X191471500Y-130595000D03*
%TD*%
%TO.C,D70*%
X296521500Y-153075000D03*
X296521500Y-149775000D03*
%TD*%
%TO.C,D1*%
X72341500Y-95162500D03*
X72341500Y-91862500D03*
%TD*%
D19*
%TO.C,C1*%
X199891500Y-134505000D03*
X198931500Y-134505000D03*
%TD*%
D17*
%TO.C,D20*%
X453211500Y-96055000D03*
X453211500Y-92755000D03*
%TD*%
D36*
%TO.C,R5*%
X232576500Y-172130000D03*
X232576500Y-171110000D03*
%TD*%
D34*
%TO.C,BOOT1*%
X267541500Y-151845000D03*
X261241500Y-151845000D03*
X267541500Y-155645000D03*
X261241500Y-155645000D03*
%TD*%
D17*
%TO.C,D23*%
X124891500Y-114742500D03*
X124891500Y-111442500D03*
%TD*%
%TO.C,D71*%
X315131500Y-152862500D03*
X315131500Y-149562500D03*
%TD*%
D26*
%TO.C,C8*%
X231511500Y-156625000D03*
X231511500Y-155665000D03*
%TD*%
D33*
%TO.C,R8*%
X110151500Y-93445000D03*
X111171500Y-93445000D03*
%TD*%
D17*
%TO.C,D81*%
X324411500Y-172575000D03*
X324411500Y-169275000D03*
%TD*%
%TO.C,D31*%
X281821500Y-114955000D03*
X281821500Y-111655000D03*
%TD*%
%TO.C,D27*%
X205881500Y-114782500D03*
X205881500Y-111482500D03*
%TD*%
%TO.C,D34*%
X338991500Y-115345000D03*
X338991500Y-112045000D03*
%TD*%
%TO.C,D77*%
X91591500Y-172482500D03*
X91591500Y-169182500D03*
%TD*%
D37*
%TO.C,R1*%
X225241500Y-170035000D03*
X225241500Y-171055000D03*
%TD*%
D17*
%TO.C,D75*%
X453661500Y-153025000D03*
X453661500Y-149725000D03*
%TD*%
%TO.C,D3*%
X119931500Y-96262500D03*
X119931500Y-92962500D03*
%TD*%
D38*
%TO.C,F1*%
X102661500Y-96545000D03*
X102661500Y-99345000D03*
%TD*%
D17*
%TO.C,D47*%
X229331500Y-134365000D03*
X229331500Y-131065000D03*
%TD*%
%TO.C,D10*%
X253481500Y-95962500D03*
X253481500Y-92662500D03*
%TD*%
%TO.C,D73*%
X415671500Y-153352500D03*
X415671500Y-150052500D03*
%TD*%
%TO.C,D29*%
X243731500Y-114832500D03*
X243731500Y-111532500D03*
%TD*%
%TO.C,D26*%
X186761500Y-115032500D03*
X186761500Y-111732500D03*
%TD*%
%TO.C,D14*%
X329611500Y-95772500D03*
X329611500Y-92472500D03*
%TD*%
%TO.C,D8*%
X215041500Y-95785000D03*
X215041500Y-92485000D03*
%TD*%
%TO.C,D72*%
X360571500Y-153332500D03*
X360571500Y-150032500D03*
%TD*%
%TO.C,D18*%
X415421500Y-95872500D03*
X415421500Y-92572500D03*
%TD*%
%TO.C,D9*%
X234411500Y-95772500D03*
X234411500Y-92472500D03*
%TD*%
%TO.C,D60*%
X121951500Y-153432500D03*
X121951500Y-150132500D03*
%TD*%
D39*
%TO.C,J2*%
X227141500Y-174155000D03*
D40*
X224601500Y-174155000D03*
X222061500Y-174155000D03*
X219521500Y-174155000D03*
X216981500Y-174155000D03*
%TD*%
D17*
%TO.C,D46*%
X210971500Y-134475000D03*
X210971500Y-131175000D03*
%TD*%
%TO.C,D63*%
X162711500Y-153842500D03*
X162711500Y-150542500D03*
%TD*%
%TO.C,D38*%
X434681500Y-115095000D03*
X434681500Y-111795000D03*
%TD*%
D19*
%TO.C,C5*%
X235601500Y-156505000D03*
X234641500Y-156505000D03*
%TD*%
D41*
%TO.C,J3*%
X105271500Y-89045000D03*
X111051500Y-89045000D03*
D42*
X104911500Y-90490000D03*
X105711500Y-90490000D03*
D43*
X106911500Y-90490000D03*
X107911500Y-90490000D03*
X108411500Y-90490000D03*
X109411500Y-90490000D03*
D42*
X110611500Y-90490000D03*
X111411500Y-90490000D03*
X111411500Y-90490000D03*
X110611500Y-90490000D03*
D43*
X109911500Y-90490000D03*
X108911500Y-90490000D03*
X107411500Y-90490000D03*
X106411500Y-90490000D03*
D42*
X105711500Y-90490000D03*
X104911500Y-90490000D03*
D44*
X103841500Y-85395000D03*
D45*
X103841500Y-89575000D03*
D44*
X112481500Y-85395000D03*
D45*
X112481500Y-89575000D03*
%TD*%
D17*
%TO.C,D52*%
X324821500Y-133762500D03*
X324821500Y-130462500D03*
%TD*%
%TO.C,D57*%
X453401500Y-134302500D03*
X453401500Y-131002500D03*
%TD*%
D21*
%TO.C,R9*%
X106171500Y-93445000D03*
X105151500Y-93445000D03*
%TD*%
D17*
%TO.C,D76*%
X72081500Y-172265000D03*
X72081500Y-168965000D03*
%TD*%
%TO.C,D56*%
X434461500Y-134462500D03*
X434461500Y-131162500D03*
%TD*%
%TO.C,D50*%
X286911500Y-134105000D03*
X286911500Y-130805000D03*
%TD*%
%TO.C,D69*%
X277101500Y-152922500D03*
X277101500Y-149622500D03*
%TD*%
%TO.C,D55*%
X415261500Y-134592500D03*
X415261500Y-131292500D03*
%TD*%
%TO.C,D48*%
X248861500Y-134242500D03*
X248861500Y-130942500D03*
%TD*%
%TO.C,D51*%
X306041500Y-133922500D03*
X306041500Y-130622500D03*
%TD*%
%TO.C,D85*%
X453371500Y-172335000D03*
X453371500Y-169035000D03*
%TD*%
%TO.C,D16*%
X386921500Y-96302500D03*
X386921500Y-93002500D03*
%TD*%
%TO.C,D54*%
X374681500Y-134395000D03*
X374681500Y-131095000D03*
%TD*%
%TO.C,D67*%
X232361500Y-150995000D03*
X232361500Y-147695000D03*
%TD*%
%TO.C,D33*%
X319681500Y-115145000D03*
X319681500Y-111845000D03*
%TD*%
D33*
%TO.C,R3*%
X256491500Y-153475000D03*
X257511500Y-153475000D03*
%TD*%
D46*
%TO.C,D42*%
X138043750Y-124005000D03*
X138043750Y-127305000D03*
%TD*%
D17*
%TO.C,D62*%
X144091500Y-153545000D03*
X144091500Y-150245000D03*
%TD*%
D21*
%TO.C,R4*%
X257471500Y-154615000D03*
X256451500Y-154615000D03*
%TD*%
D26*
%TO.C,C2*%
X204281500Y-138605000D03*
X204281500Y-137645000D03*
%TD*%
D17*
%TO.C,D30*%
X262801500Y-115222500D03*
X262801500Y-111922500D03*
%TD*%
%TO.C,D78*%
X160441500Y-172475000D03*
X160441500Y-169175000D03*
%TD*%
D20*
%TO.C,C4*%
X232706500Y-173300000D03*
X232706500Y-174260000D03*
%TD*%
D17*
%TO.C,D61*%
X334081500Y-152942500D03*
X334081500Y-149642500D03*
%TD*%
D20*
%TO.C,C7*%
X230121500Y-169345000D03*
X230121500Y-170305000D03*
%TD*%
D17*
%TO.C,D35*%
X367611500Y-96842500D03*
X367611500Y-93542500D03*
%TD*%
D33*
%TO.C,R7*%
X220751500Y-157805000D03*
X221771500Y-157805000D03*
%TD*%
D17*
%TO.C,D24*%
X148711500Y-114882500D03*
X148711500Y-111582500D03*
%TD*%
D26*
%TO.C,C3*%
X237356500Y-173580000D03*
X237356500Y-172620000D03*
%TD*%
D17*
%TO.C,D11*%
X272491500Y-95872500D03*
X272491500Y-92572500D03*
%TD*%
%TO.C,D5*%
X157981500Y-96152500D03*
X157981500Y-92852500D03*
%TD*%
%TO.C,D87*%
X358211500Y-115875000D03*
X358211500Y-112575000D03*
%TD*%
%TO.C,D21*%
X72371500Y-114692500D03*
X72371500Y-111392500D03*
%TD*%
%TO.C,D68*%
X270621500Y-152785000D03*
X270621500Y-149485000D03*
%TD*%
M02*
