M48
; DRILL file {KiCad 9.0.3} date 2025-08-14T12:28:09+0200
; FORMAT={-:-/ absolute / inch / decimal}
; #@! TF.CreationDate,2025-08-14T12:28:09+02:00
; #@! TF.GenerationSoftware,Kicad,Pcbnew,9.0.3
; #@! TF.FileFunction,Plated,1,2,PTH
FMAT,2
INCH
; #@! TA.AperFunction,Plated,PTH,ViaDrill
T1C0.0118
; #@! TA.AperFunction,Plated,PTH,ComponentDrill
T2C0.0236
; #@! TA.AperFunction,Plated,PTH,ComponentDrill
T3C0.0394
; #@! TA.AperFunction,Plated,PTH,ComponentDrill
T4C0.1201
%
G90
G05
T1
X3.8646Y-3.7577
X4.0316Y-4.5159
X4.0431Y-3.6003
X4.1205Y-3.7183
X4.1796Y-4.3285
X4.4031Y-3.7403
X4.4231Y-3.6303
X4.4268Y-4.5159
X4.4552Y-3.8758
X4.5733Y-3.797
X5.3497Y-6.1766
X7.1016Y-3.7805
X7.2536Y-4.5837
X7.6394Y-5.2927
X7.728Y-6.1325
X7.7631Y-6.1159
X7.8493Y-5.2407
X7.9323Y-5.3537
X7.9827Y-6.0022
X7.9839Y-6.7939
X8.0241Y-5.3537
X8.189Y-5.2927
X8.2731Y-5.9303
X8.3528Y-6.2577
X8.5123Y-6.6207
X8.5312Y-5.9978
X8.5599Y-5.2943
X8.6245Y-6.1104
X8.6812Y-6.2778
X8.7431Y-6.6503
X8.8213Y-6.5368
X8.8253Y-6.3167
X8.9105Y-6.6997
X8.9457Y-6.3262
X9.0019Y-6.243
X9.0209Y-6.7033
X9.0682Y-6.3978
X9.0729Y-6.4884
X9.0855Y-6.0915
X9.1131Y-6.4427
X9.1138Y-6.2156
X9.1306Y-6.8793
X9.1495Y-6.6929
X9.1548Y-6.4935
X9.1587Y-6.399
X9.1631Y-6.0003
X9.2008Y-6.1589
X9.2532Y-6.2939
X9.2756Y-6.1616
X9.3371Y-6.8896
X9.3442Y-6.7104
X9.4131Y-6.4852
X9.4249Y-6.3073
X9.4607Y-6.7762
X9.6364Y-6.098
X9.6654Y-6.7868
X9.8796Y-6.0175
X10.4127Y-6.0242
X11.2631Y-6.0103
X11.4931Y-6.0203
X11.7713Y-6.0281
X12.1717Y-6.0219
X14.2556Y-3.7671
X14.9611Y-3.7671
T3
X8.5426Y-6.8565
X8.6426Y-6.8565
X8.7426Y-6.8565
X8.8426Y-6.8565
X8.9426Y-6.8565
T4
X2.8209Y-3.4612
X2.8209Y-4.2112
X2.8209Y-4.9612
X2.8209Y-5.7112
X2.8209Y-6.4612
X3.0709Y-3.3612
X3.0709Y-4.1112
X3.0709Y-4.8612
X3.0709Y-5.6112
X3.0709Y-6.3612
X3.5709Y-3.4612
X3.5709Y-4.2112
X3.5709Y-4.9612
X3.5709Y-5.7112
X3.5709Y-6.4612
X3.8209Y-3.3612
X3.8209Y-4.1112
X3.8209Y-4.8612
X3.8209Y-5.6112
X3.8209Y-6.3612
X4.6965Y-3.4612
X4.7921Y-4.9618
X4.7921Y-5.7118
X4.884Y-4.2112
X4.9465Y-3.3612
X5.0277Y-5.2612
X5.0421Y-4.8618
X5.0421Y-5.6118
X5.134Y-4.1112
X5.2777Y-5.1612
X5.4465Y-3.4612
X5.634Y-5.7112
X5.6965Y-3.3612
X5.8215Y-4.2112
X5.884Y-5.6112
X6.009Y-4.9612
X6.0715Y-4.1112
X6.1965Y-3.4612
X6.259Y-4.8612
X6.2836Y-6.4612
X6.384Y-5.7112
X6.4465Y-3.3612
X6.5336Y-6.3612
X6.5715Y-4.2112
X6.634Y-5.6112
X6.759Y-4.9612
X6.8215Y-4.1112
X6.9465Y-3.4612
X7.009Y-4.8612
X7.1274Y-6.4612
X7.134Y-5.7112
X7.1965Y-3.3612
X7.3215Y-4.2112
X7.3774Y-6.3612
X7.384Y-5.6112
X7.509Y-4.9612
X7.5715Y-4.1112
X7.6965Y-3.4612
X7.759Y-4.8612
X7.884Y-5.7112
X7.9465Y-3.3612
X8.0715Y-4.2112
X8.134Y-5.6112
X8.259Y-4.9612
X8.3215Y-4.1112
X8.4465Y-3.4612
X8.509Y-4.8612
X8.634Y-5.7112
X8.6965Y-3.3612
X8.8215Y-4.2112
X8.884Y-5.6112
X9.009Y-4.9612
X9.0715Y-4.1112
X9.1965Y-3.4612
X9.259Y-4.8612
X9.384Y-5.7112
X9.4465Y-3.3612
X9.5715Y-4.2112
X9.634Y-5.6112
X9.759Y-4.9612
X9.8215Y-4.1112
X9.9465Y-3.4612
X10.009Y-4.8612
X10.0902Y-6.7612
X10.134Y-5.7112
X10.1965Y-3.3612
X10.3215Y-4.2112
X10.3402Y-6.6612
X10.384Y-5.6112
X10.509Y-4.9612
X10.5715Y-4.1112
X10.6965Y-3.4612
X10.759Y-4.8612
X10.884Y-5.7112
X10.9465Y-3.3612
X11.0715Y-4.2112
X11.134Y-5.6112
X11.259Y-4.9612
X11.3215Y-4.1112
X11.4465Y-3.4612
X11.509Y-4.8612
X11.634Y-5.7112
X11.6965Y-3.3612
X11.8215Y-4.2112
X11.884Y-5.6112
X12.009Y-4.9612
X12.0715Y-4.1112
X12.1965Y-3.4612
X12.259Y-4.8612
X12.384Y-5.7112
X12.4465Y-3.3612
X12.5715Y-4.2112
X12.634Y-5.6112
X12.7524Y-6.4612
X12.759Y-4.9612
X12.8215Y-4.1112
X12.9465Y-3.4612
X13.0024Y-6.3612
X13.009Y-4.8612
X13.134Y-5.7112
X13.1965Y-3.3612
X13.3215Y-4.2112
X13.384Y-5.6112
X13.509Y-4.9612
X13.5715Y-4.1112
X13.5961Y-6.4612
X13.6965Y-3.4612
X13.759Y-4.8612
X13.8461Y-6.3612
X13.9465Y-3.3612
X14.0715Y-4.2112
X14.1652Y-5.7112
X14.3215Y-4.1112
X14.4152Y-5.6112
X14.4465Y-3.4612
X14.6965Y-3.3612
X14.7277Y-4.9612
X14.9777Y-4.8612
X15.009Y-4.2112
X15.1965Y-3.4612
X15.1965Y-5.7112
X15.259Y-4.1112
X15.4465Y-3.3612
X15.4465Y-5.6112
X16.3209Y-3.4612
X16.3209Y-4.2112
X16.3209Y-4.9612
X16.3209Y-5.7112
X16.3209Y-6.4612
X16.5709Y-3.3612
X16.5709Y-4.1112
X16.5709Y-4.8612
X16.5709Y-5.6112
X16.5709Y-6.3612
X17.0709Y-3.4612
X17.0709Y-4.2112
X17.0709Y-4.9612
X17.0709Y-5.7112
X17.0709Y-6.4612
X17.3209Y-3.3612
X17.3209Y-4.1112
X17.3209Y-4.8612
X17.3209Y-5.6112
X17.3209Y-6.3612
X17.8209Y-3.4612
X17.8209Y-4.2112
X17.8209Y-4.9612
X17.8209Y-5.7112
X17.8209Y-6.4612
X18.0709Y-3.3612
X18.0709Y-4.1112
X18.0709Y-4.8612
X18.0709Y-5.6112
X18.0709Y-6.3612
T2
G00X4.0882Y-3.3502
M15
G01X4.0882Y-3.3738
M16
G05
G00X4.0882Y-3.5049
M15
G01X4.0882Y-3.5482
M16
G05
G00X4.4284Y-3.3502
M15
G01X4.4284Y-3.3738
M16
G05
G00X4.4284Y-3.5049
M15
G01X4.4284Y-3.5482
M16
G05
M30
